# xmcd
#
# Track frame offsets:
#	150
#	23556
#	42631
#	64224
#	90474
#	119288
#	147462
#	172362
#	193287
#	216578
#	245398
#
# Disc length: 3581 seconds
#
# Revision: 1841685058
# Processed by: cddbd v1.5.2PL0 Copyright (c) Steve Scherf et al.
# Submitted via: EZCDAudioConverter 8.0.2.1
#
DISCID=ae0dfb0b
DTITLE=Vasa - Giữa Khung Trời Xa
DYEAR=2018
DGENRE=Miscellaneous
TTITLE0=Vasa - Giữa Khung Trời Xa
TTITLE1=Vasa - Xa rồi mùa đông
TTITLE2=Vasa - Còn tưởi nào cho em
TTITLE3=Vasa - Đêm buồn
TTITLE4=Vasa - Trên tháng ngaytf đã qua
TTITLE5=Vasa - Chiếc lá cuối cùng
TTITLE6=Vasa - Làm sao hết yêu người
TTITLE7=Vasa - Về lại phố xưa
TTITLE8=Vasa - Ru em tùng ngón xuân nồng
TTITLE9=Vasa - Người về như giấc mơ
TTITLE10=Vasa, Quang Dũng - Giữa Khung Trời Xa 
EXTD=
EXTT0=
EXTT1=
EXTT2=
EXTT3=
EXTT4=
EXTT5=
EXTT6=
EXTT7=
EXTT8=
EXTT9=
EXTT10=
PLAYORDER=
